<?xml version="1.0" encoding="utf-8"?>
<svg version="1.1" id="Layer_1" xmlns="http://www.w3.org/2000/svg" xmlns:xlink="http://www.w3.org/1999/xlink" x="0px" y="0px"
	 viewBox="0 0 612 792" style="enable-background:new 0 0 612 792;" xml:space="preserve">
<style type="text/css">
	.st0{fill:#FFFFFF;}
</style>
<g>
	<path class="st0" d="M603,352c-6.4,13.7-12.8,27.3-19.1,41c-35.6,78.1-71.1,156.3-106.5,234.5c-1.5,3.3-3.2,4.6-6.9,4.6
		c-35,0.1-65.2-12.7-92.1-34.2c-24.1-19.2-43.7-42.8-63.1-66.6c-18-22-35.7-44.4-54.6-65.7c-18.6-20.9-39.7-39.2-66.6-48.7
		c-10.8-3.8-22.5-5.3-33.9-7.4c-1.3-0.2-3.8,2.1-4.6,3.8c-11.9,25.8-23.7,51.6-35.3,77.5c-4.3,9.5-8,19.2-12.3,28.6
		C83.9,571.7,60,623.8,36,676c-0.3,0-0.7,0-1,0c-5.4-2.7-10.9-5.4-16.3-8c-1.9-0.9-3.8-1.9-6.1-3c82.7-182,165.2-363.7,247.8-545.4
		c15.3,8.3,32.1,9.9,48.2,14.1c26.4,7,48.2,22.1,68,40.3c26,23.9,47.1,52,69.1,79.5c19.2,23.9,38.5,47.7,62.6,67.1
		c17.7,14.3,37.2,25.4,60,28.8c11.4,1.7,23.2,1.2,34.8,1.6C603,351.3,603,351.7,603,352z M307.2,228.4c0.9-1.5,2.1-3,2.8-4.6
		c5.1-11.2,10.2-22.4,15.2-33.6c3.4-7.5,6.8-15,10.3-22.7c-17.2-10.8-35.4-17.1-55-19.3c-1.1-0.1-2.9,1.4-3.5,2.5
		c-2.2,4.1-4,8.4-5.9,12.6c-6.8,14.9-13.5,29.9-20.3,44.9c6.6,1.2,12.8,2.1,18.9,3.7C283.2,215.4,296,220.1,307.2,228.4
		c-3.4,7.9-6.7,15.8-10.3,23.7c-5.4,12.1-11,24-16.6,36.4c-16.7-10-34.1-16.7-53.1-18.9c-3.1-0.4-4.4,0.3-5.6,3
		c-8.1,18.2-16.4,36.3-24.7,54.4c-0.4,0.8-0.5,1.7-0.8,2.8c20.6,2,39.2,8.7,56.5,19.2c-9,20.1-18.1,40.2-26.6,59.3
		c16.2,13.9,31.8,27.4,47.5,40.9c8.8-19.4,17.8-39.1,27.2-59.9c14.6,17.5,28.4,34.1,42.6,51.1c9.2-20.2,18.2-39.9,27.2-59.8
		c14.3,17.2,28.2,33.8,42.6,51.1c9.5-20.9,18.5-40.7,27.2-59.7c15.8,13.5,31.4,26.9,47.3,40.4c-8.7,19-17.6,38.8-26.8,58.9
		c-18.2-11-32.9-25.2-47.6-40.2c-9.3,20.4-18.3,40.1-27.7,60.9c-14.6-17.6-28.4-34.2-42.4-50.9c-0.4,0.7-0.9,1.3-1.3,2.1
		c-8.3,18.3-16.7,36.6-24.8,55c-0.7,1.6-0.2,4.6,0.9,6c6.5,8.5,13.2,16.8,20,24.9c6.5,7.8,13.2,15.3,20.3,23.5
		c9.3-20.5,18.3-40.2,27.1-59.4c15.8,13.5,31.4,26.9,47.2,40.4c-8.7,19.1-17.7,39.1-26.7,58.9c12.3,9.2,39.1,18.7,53.7,19.5
		c2.9,0.1,4.1-0.8,5.2-3.3c7.8-17.4,15.7-34.8,23.6-52.2c0.6-1.4,1.1-2.9,1.9-4.9c-20.7-2-39.3-8.6-56.8-19.4
		c9.2-20.2,18.3-40.2,27.4-60.2c1.8,1,3,1.6,4.1,2.3c14.5,8.4,30.1,13.8,46.7,16.4c4.1,0.6,6.8,0.3,8.8-4.4
		c7.2-17,15.1-33.7,22.7-50.5c0.7-1.6,1.3-3.2,2.1-5.3c-20.9-2-39.5-8.5-56.8-19.4c9.2-20.3,18.3-40.3,26.8-59.1
		c-16.3-14-31.9-27.4-47.6-40.9c-8.8,19.2-17.8,39-27.3,59.8c-14.6-17.5-28.4-34.1-42.6-51.2c-9.1,20-18.1,39.7-27.2,59.8
		c-14.2-17-28.1-33.7-42.7-51.1c-9.5,21-18.5,40.7-27.7,60.8c-2.4-2.4-4.5-4.5-6.6-6.6c-12.7-12.5-25.7-24.7-41.4-33.5
		c0.8-1.4,1.8-2.8,2.5-4.3c7-15.4,14-30.8,21-46.2c1.5-3.2,3-6.4,4.6-9.8c18,11.1,32.9,25.1,47.4,40.4c9.3-20.3,18.3-40.1,27.8-61
		c14.5,17.4,28.4,34.1,42.3,50.8c0.4-0.4,0.7-0.6,0.8-0.9c8.6-18.9,17.3-37.7,25.7-56.7c0.6-1.3-0.1-3.8-1.1-5.1
		c-6.6-8.5-13.4-17-20.3-25.3c-6.4-7.7-13.1-15.2-20.2-23.4c-9.4,20.6-18.4,40.4-26.9,59.1c-14.7-12.1-29.2-24-43.7-35.8
		C311,229.8,309,229.3,307.2,228.4z"/>
</g>
</svg>
