<?xml version="1.0" standalone="no"?>
<!DOCTYPE svg PUBLIC "-//W3C//DTD SVG 20010904//EN"
 "http://www.w3.org/TR/2001/REC-SVG-20010904/DTD/svg10.dtd">
<svg version="1.0" xmlns="http://www.w3.org/2000/svg"
 width="417.000000pt" height="417.000000pt" viewBox="0 0 417.000000 417.000000"
 preserveAspectRatio="xMidYMid meet">
<metadata>
Created by potrace 1.11, written by Peter Selinger 2001-2013
</metadata>
<g transform="translate(0.000000,417.000000) scale(0.100000,-0.100000)"
fill="#000000" stroke="none">
<path d="M2270 3469 c-30 -22 -65 -49 -77 -59 -13 -11 -23 -17 -23 -14 0 4 -6
1 -13 -5 -17 -13 -181 -94 -222 -108 -16 -6 -39 -15 -50 -19 -11 -4 -23 -8
-27 -9 -5 -2 -10 -4 -13 -5 -3 -1 -8 -3 -12 -4 -10 -2 -84 -26 -103 -33 -8 -3
-26 -7 -40 -9 -14 -2 -36 -6 -50 -10 -14 -4 -32 -8 -40 -9 -8 -1 -31 -5 -50
-8 -149 -24 -195 -27 -420 -29 -257 -2 -449 11 -615 42 -27 5 -62 12 -78 14
-15 3 -35 7 -45 10 -9 3 -28 7 -42 10 -14 3 -40 9 -59 15 -19 6 -37 8 -42 6
-4 -3 -9 -1 -11 5 -1 5 -12 11 -23 13 -11 2 -30 9 -42 15 -13 7 -23 10 -23 6
0 -3 -6 -2 -13 4 -6 5 -28 17 -49 25 l-36 15 3 -766 c1 -422 5 -783 9 -802 4
-19 9 -44 11 -55 16 -87 26 -129 39 -159 8 -19 12 -37 8 -40 -3 -3 -1 -6 4 -6
5 0 10 -8 11 -18 4 -52 111 -244 198 -357 56 -72 186 -205 200 -205 3 0 17
-11 31 -25 14 -14 30 -22 36 -19 7 4 8 2 4 -4 -4 -7 -2 -12 3 -12 6 0 13 0 16
0 2 0 16 -11 30 -24 31 -28 185 -111 185 -99 0 4 4 3 8 -3 15 -21 237 -89 327
-99 22 -2 49 -7 60 -10 17 -4 29 11 78 95 31 55 57 104 57 110 0 5 3 10 8 10
4 0 20 25 36 55 17 30 32 52 35 50 2 -3 9 -1 15 4 32 26 95 6 117 -38 8 -14
39 -69 69 -121 30 -52 64 -112 75 -132 14 -28 26 -38 45 -39 32 -1 596 -1 632
0 21 1 32 9 47 39 10 20 19 40 20 45 1 4 10 16 21 27 12 12 18 25 15 30 -4 6
-2 10 3 10 6 0 19 18 31 40 11 22 19 40 16 40 -3 0 2 8 10 18 8 9 16 22 16 27
1 6 10 16 21 23 10 7 15 18 12 24 -4 6 -2 8 4 4 6 -3 13 -2 17 4 8 13 72 13
80 0 4 -6 11 -7 17 -4 6 4 8 2 5 -3 -4 -6 0 -16 8 -23 8 -7 15 -19 15 -27 0
-7 7 -16 15 -19 8 -4 13 -9 10 -14 -2 -4 6 -18 18 -31 12 -13 21 -26 20 -29
-3 -8 69 -135 79 -138 4 -2 6 -8 3 -12 -5 -9 29 -33 36 -26 2 2 26 7 53 10 27
4 53 9 58 12 5 3 23 7 41 10 65 8 154 36 212 67 22 12 40 19 40 17 0 -3 34 13
75 34 110 57 214 133 314 231 52 50 126 138 126 149 0 3 10 17 23 32 47 54
180 314 160 314 -3 0 -1 6 6 13 9 12 40 125 46 167 1 8 4 24 8 35 15 45 18
204 18 885 1 393 0 720 0 727 -1 10 -26 23 -56 29 -5 1 -35 7 -65 13 -93 19
-103 21 -150 27 -25 3 -56 7 -70 9 -153 26 -680 32 -791 10 -13 -3 -37 -8 -54
-10 -16 -3 -57 -10 -90 -16 -62 -11 -231 -55 -275 -72 -8 -3 -40 -13 -70 -23
-30 -9 -61 -21 -67 -27 -7 -5 -13 -7 -13 -3 0 6 -82 -24 -90 -33 -3 -3 -12 -7
-20 -9 -14 -2 -37 -11 -117 -44 -18 -7 -33 -16 -33 -20 0 -5 -3 -7 -7 -6 -5 2
-43 -14 -86 -36 -83 -41 -105 -41 -67 -1 13 14 21 25 17 25 -3 0 10 15 28 34
19 18 35 36 35 40 0 4 10 17 23 29 23 23 230 268 225 266 -2 0 -28 -19 -58
-40z"/>
</g>
</svg>
